<svg xmlns="http://www.w3.org/2000/svg" xmlns:xlink="http://www.w3.org/1999/xlink" viewBox="0 0 34 48"><defs><path id="a" d="M0 0h34v48H0z"/></defs><clipPath id="b"><use xlink:href="#a" overflow="visible"/></clipPath><path clip-path="url(#b)" fill="#E12457" d="M31.8 41.3h-8.9c5-2 8.6-6.9 8.6-12.6 0-3.1-1-5.9-2.7-8.1.3-.8.5-1.6.5-2.5 0-3.1-2.4-5.7-5.4-6l1.6-2.5c.6-1 .3-2.3-.7-3l2.9-4.7L24.6 0l-2.9 4.7c-1-.6-2.3-.3-3 .7L9.1 21.1l-1.7-1L5 23.9l10.1 6.2 2.4-3.9-1.7-1 2.4-4c1.1 1.7 2.9 2.8 5.1 2.8.5 0 1-.1 1.4-.2 1 1.4 1.5 3 1.5 4.8 0 4.6-3.8 8.4-8.4 8.4-1.4 0-2.7-.4-3.9-1h2.3v-3.2H0V36h6.6c1.5 2.3 3.7 4.2 6.4 5.2H3c-1.2 0-2.2 1-2.2 2.2v2.3c0 1.2 1 2.2 2.2 2.2h28.9c1.2 0 2.2-1 2.2-2.2v-2.3c-.1-1.1-1.1-2.1-2.3-2.1"/></svg>