<svg xmlns="http://www.w3.org/2000/svg" xmlns:xlink="http://www.w3.org/1999/xlink" viewBox="0 0 59.2 45.1"><defs><path id="a" d="M0 0h59.2v45.1H0z"/></defs><clipPath id="b"><use xlink:href="#a" overflow="visible"/></clipPath><path clip-path="url(#b)" fill="#E12457" d="M2.5 41.6c-1.4 0-2.5.1-2.5.2l1.2 3.1c0 .1 4 .2 5.3.2h41.8c1.4 0 5.3-.1 5.3-.2l1.2-3.1c0-.1-1.1-.2-2.5-.2H2.5zM47.6 5.8h-.3l.3-4c0-1-.8-1.8-1.8-1.8H31.5v19l5.8 1.9L33.6 32l-11.1-3.7 3.7-11.2 4.6 1.5V0H9.1c-1 0-1.8.8-1.8 1.8l3 36.7c0 1 .8 1.8 1.8 1.8h30.7c1 0 1.8-.8 1.8-1.8l.8-9.7c.7.1 1.4.2 2.2.2 6.4 0 11.6-5.2 11.6-11.6S54 5.8 47.6 5.8m5.9 16.4c-.3.4-.7.7-1 1-1.3 1.1-3 1.7-4.8 1.7-.7 0-1.3 0-1.9-.2l1.2-15h.7c4.2 0 7.6 3.4 7.6 7.6-.1 1.9-.8 3.6-1.8 4.9"/></svg>