<svg xmlns="http://www.w3.org/2000/svg" xmlns:xlink="http://www.w3.org/1999/xlink" width="47.9" height="48"><defs><path id="a" d="M0 0h47.9v48H0z"/></defs><clipPath id="b"><use xlink:href="#a" overflow="visible"/></clipPath><path clip-path="url(#b)" fill="#E12457" d="M37.1 26.1L24.3 10.8l-.1-.1C18.4 4.9 10.8 1.3 2.7.5c-.6 0-1.2.2-1.6.6-.4.4-.6 1-.6 1.6.8 8.1 4.4 15.7 10.1 21.5l.1.1L26.1 37c.4.3.8.5 1.3.5s1-.2 1.4-.6l2.7-2.7.3.3c.4.4.9.6 1.4.6s1-.2 1.4-.6c.8-.8.8-2 0-2.8l-.3-.3 2.7-2.7c.7-.7.7-1.8.1-2.6"/><path clip-path="url(#b)" fill="none" stroke="#FFF" stroke-miterlimit="10" d="M37.1 26.1L24.3 10.8l-.1-.1C18.4 4.9 10.8 1.3 2.7.5c-.6 0-1.2.2-1.6.6-.4.4-.6 1-.6 1.6.8 8.1 4.4 15.7 10.1 21.5l.1.1L26.1 37c.4.3.8.5 1.3.5s1-.2 1.4-.6l2.7-2.7.3.3c.4.4.9.6 1.4.6s1-.2 1.4-.6c.8-.8.8-2 0-2.8l-.3-.3 2.7-2.7c.7-.7.7-1.8.1-2.6z"/><path clip-path="url(#b)" fill="#E12457" d="M34 39.4l2.1 2.2"/><path clip-path="url(#b)" fill="none" stroke="#FFF" stroke-miterlimit="10" d="M34 39.4l2.1 2.2"/><path clip-path="url(#b)" fill="#E12457" d="M36.1 43.5c-.5 0-1-.2-1.4-.6l-2.2-2.2c-.8-.8-.8-2 0-2.8.8-.8 2-.8 2.8 0l2.2 2.2c.8.8.8 2 0 2.8-.4.4-.9.6-1.4.6"/><path clip-path="url(#b)" fill="none" stroke="#FFF" stroke-miterlimit="10" d="M36.1 43.5c-.5 0-1-.2-1.4-.6l-2.2-2.2c-.8-.8-.8-2 0-2.8.8-.8 2-.8 2.8 0l2.2 2.2c.8.8.8 2 0 2.8-.4.4-.9.6-1.4.6z"/><path clip-path="url(#b)" fill="#E12457" d="M39.4 33.9l2.2 2.2"/><path clip-path="url(#b)" fill="none" stroke="#FFF" stroke-miterlimit="10" d="M39.4 33.9l2.2 2.2"/><path clip-path="url(#b)" fill="#E12457" d="M41.6 38.1c-.5 0-1-.2-1.4-.6L38 35.3c-.8-.8-.8-2 0-2.8.8-.8 2-.8 2.8 0l2.2 2.2c.8.8.8 2 0 2.8-.4.4-.9.6-1.4.6"/><path clip-path="url(#b)" fill="none" stroke="#FFF" stroke-miterlimit="10" d="M41.6 38.1c-.5 0-1-.2-1.4-.6L38 35.3c-.8-.8-.8-2 0-2.8.8-.8 2-.8 2.8 0l2.2 2.2c.8.8.8 2 0 2.8-.4.4-.9.6-1.4.6z"/><path clip-path="url(#b)" fill="#E12457" d="M11.1 29.6c-1.7 5.3-.1 11.5 4.6 17.2.4.5.9.7 1.5.7h.1c.6 0 1.2-.4 1.5-.9l4.3-6.9-12-10.1z"/><path clip-path="url(#b)" fill="none" stroke="#FFF" stroke-miterlimit="10" d="M11.1 29.6c-1.7 5.3-.1 11.5 4.6 17.2.4.5.9.7 1.5.7h.1c.6 0 1.2-.4 1.5-.9l4.3-6.9-12-10.1z"/><path clip-path="url(#b)" fill="#E12457" d="M47 16c-2.7-3.3-6.5-5.3-10.7-5.7-2.3-.3-4.6 0-6.7.7l10.1 12.1 6.8-4.3c.5-.3.8-.8.9-1.3.1-.5 0-1.1-.4-1.5"/><path clip-path="url(#b)" fill="none" stroke="#FFF" stroke-miterlimit="10" d="M47 16c-2.7-3.3-6.5-5.3-10.7-5.7-2.3-.3-4.6 0-6.7.7l10.1 12.1 6.8-4.3c.5-.3.8-.8.9-1.3.1-.5 0-1.1-.4-1.5z"/></svg>