<svg xmlns="http://www.w3.org/2000/svg" xmlns:xlink="http://www.w3.org/1999/xlink" width="96" height="96"><defs><path id="a" d="M0 0h96v96H0z"/></defs><clipPath id="b"><use xlink:href="#a" overflow="visible"/></clipPath><path clip-path="url(#b)" fill="#E12457" d="M48 0C21.5 0 0 21.5 0 48s21.5 48 48 48 48-21.5 48-48c0-9.4-2.7-18.2-7.4-25.6.9-1.6 1.4-3.4 1.4-5.4 0-6-5-11-11-11-2 0-3.8.5-5.4 1.4C66.2 2.7 57.4 0 48 0m0 6c7.8 0 15.1 2.1 21.3 5.8-.8 1.6-1.3 3.3-1.3 5.2 0 6 5 11 11 11 1.9 0 3.7-.5 5.2-1.3C87.9 32.9 90 40.2 90 48c0 23.2-18.8 42-42 42S6 71.2 6 48 24.8 6 48 6m0 13c-16 0-29 13-29 29 0 4.8 1.2 9.4 3.3 13.4-.8 1.4-1.3 2.9-1.3 4.6 0 4.9 4.1 9 9 9 1.7 0 3.2-.5 4.6-1.3 4 2.1 8.6 3.3 13.4 3.3 16 0 29-13 29-29S64 19 48 19m0 6c12.7 0 23 10.3 23 23S60.7 71 48 71c-3.4 0-6.6-.7-9.5-2.1.3-.9.5-1.9.5-2.9 0-4.9-4.1-9-9-9-1 0-2 .2-2.9.5-1.4-2.9-2.1-6.1-2.1-9.5 0-12.7 10.3-23 23-23m0 11c-6.6 0-12 5.4-12 12s5.4 12 12 12 12-5.4 12-12-5.4-12-12-12m0 6c3.3 0 6 2.7 6 6s-2.7 6-6 6-6-2.7-6-6 2.7-6 6-6"/></svg>