<svg xmlns="http://www.w3.org/2000/svg" xmlns:xlink="http://www.w3.org/1999/xlink" viewBox="0 0 72.2 73.1"><defs><path id="a" d="M0 0h72.2v73.1H0z"/></defs><clipPath id="b"><use xlink:href="#a" overflow="visible"/></clipPath><path clip-path="url(#b)" fill="#E12457" d="M49.2 29.8S51 10.5 32.5 0c0 0-19 15.9-15.5 29.2 0 0 9.9 3.1 13 12.1 0 .1.1.3.1.4 0 0-.6-10.4 4.2-22.6 0 0-3.5 23-.6 30.4 0 0 2.2-14.7 15.5-19.7"/><path clip-path="url(#b)" fill="#E12457" d="M13.4 39.3s9.9 4.4 16.7 12.5c.4.5.6-21.8-29.8-24.4 0 0-5.9 39.1 32.2 36.4 0 0-5.6-14.4-19.1-24.5m56.9-12S34 26.5 35.4 62.1c0 0 9.3-15.8 24-21.8 0 0-22.6 13.4-21.8 32.7 0 .1 43.9-5.7 32.7-45.7"/></svg>