<svg xmlns="http://www.w3.org/2000/svg" xmlns:xlink="http://www.w3.org/1999/xlink" viewBox="0 0 84 60"><defs><path id="a" d="M0 0h84v60H0z"/></defs><clipPath id="b"><use xlink:href="#a" overflow="visible"/></clipPath><path clip-path="url(#b)" fill="#E12457" d="M77.9 45H6.1C5 29.7 12.5 15.3 24.5 8L27 30.7c.2 1.6 1.7 2.8 3.3 2.6 1.6-.2 2.8-1.7 2.6-3.3L30 3.3c-.1-.8.2-1.7.7-2.3.6-.6 1.4-1 2.3-1h17.8c.9 0 1.7.4 2.3 1 .6.6.8 1.5.8 2.3L51 30c-.2 1.6 1 3.1 2.6 3.3 1.6.2 3.1-1 3.3-2.6L59.5 8c12 7.3 19.5 21.7 18.4 37M84 55.5c0 2.5-2 4.5-4.5 4.5h-75C2 60 0 58 0 55.5S2 51 4.5 51h75c2.5 0 4.5 2 4.5 4.5"/></svg>