<svg xmlns="http://www.w3.org/2000/svg" xmlns:xlink="http://www.w3.org/1999/xlink">
  <defs>
    <path id="a" d="M0 0h96v96H0z"/>
  </defs>
  <symbol id="sprite-facebook" viewBox="0 0 112.196 112.196">
    <circle cx="56.098" cy="56.098" r="56.098" fill="#3b5998"/>
    <path d="M70.201 58.294h-10.01v36.672H45.025V58.294h-7.213V45.406h7.213v-8.34c0-5.964 2.833-15.303 15.301-15.303l11.234.047v12.51h-8.151c-1.337 0-3.217.668-3.217 3.513v7.585h11.334l-1.325 12.876z" fill="#fff"/>
  </symbol>
  <symbol id="sprite-logo" viewBox="0 0 96 96">
    <clipPath id="b"><use xlink:href="#a" overflow="visible"/>
    </clipPath>
    <path clip-path="url(#b)" fill="currentColor" d="M48 0C21.5 0 0 21.5 0 48s21.5 48 48 48 48-21.5 48-48c0-9.4-2.7-18.2-7.4-25.6.9-1.6 1.4-3.4 1.4-5.4 0-6-5-11-11-11-2 0-3.8.5-5.4 1.4C66.2 2.7 57.4 0 48 0m0 6c7.8 0 15.1 2.1 21.3 5.8-.8 1.6-1.3 3.3-1.3 5.2 0 6 5 11 11 11 1.9 0 3.7-.5 5.2-1.3C87.9 32.9 90 40.2 90 48c0 23.2-18.8 42-42 42S6 71.2 6 48 24.8 6 48 6m0 13c-16 0-29 13-29 29 0 4.8 1.2 9.4 3.3 13.4-.8 1.4-1.3 2.9-1.3 4.6 0 4.9 4.1 9 9 9 1.7 0 3.2-.5 4.6-1.3 4 2.1 8.6 3.3 13.4 3.3 16 0 29-13 29-29S64 19 48 19m0 6c12.7 0 23 10.3 23 23S60.7 71 48 71c-3.4 0-6.6-.7-9.5-2.1.3-.9.5-1.9.5-2.9 0-4.9-4.1-9-9-9-1 0-2 .2-2.9.5-1.4-2.9-2.1-6.1-2.1-9.5 0-12.7 10.3-23 23-23m0 11c-6.6 0-12 5.4-12 12s5.4 12 12 12 12-5.4 12-12-5.4-12-12-12m0 6c3.3 0 6 2.7 6 6s-2.7 6-6 6-6-2.7-6-6 2.7-6 6-6"/>
  </symbol>
  <symbol id="sprite-tick" viewBox="0 0 8.062 15">
    <path  d="M6.372 7.81L.288 1.69A1 1 0 111.694.28L7.779 6.4a1 1 0 01-1.407 1.41zm-.049-.5L.347 13.32a.99.99 0 101.4 1.4l5.976-6.01a.99.99 0 00-1.4-1.4z" fill="currentColor" fill-rule="nonzero"/>
  </symbol>
  <symbol id="sprite-twitter" viewBox="0 0 112.197 112.197">
    <circle cx="56.099" cy="56.098" r="56.098" fill="#55acee"/>
    <path d="M90.461 40.316a26.753 26.753 0 01-7.702 2.109 13.445 13.445 0 005.897-7.417 26.843 26.843 0 01-8.515 3.253 13.396 13.396 0 00-9.79-4.233c-7.404 0-13.409 6.005-13.409 13.409 0 1.051.119 2.074.349 3.056-11.144-.559-21.025-5.897-27.639-14.012a13.351 13.351 0 00-1.816 6.742c0 4.651 2.369 8.757 5.965 11.161a13.314 13.314 0 01-6.073-1.679l-.001.17c0 6.497 4.624 11.916 10.757 13.147a13.362 13.362 0 01-3.532.471c-.866 0-1.705-.083-2.523-.239 1.706 5.326 6.657 9.203 12.526 9.312a26.904 26.904 0 01-16.655 5.74c-1.08 0-2.15-.063-3.197-.188a37.929 37.929 0 0020.553 6.025c24.664 0 38.152-20.432 38.152-38.153 0-.581-.013-1.16-.039-1.734a27.192 27.192 0 006.692-6.94z" fill="#f1f2f2"/>
  </symbol>
  <symbol id="sprite-vk" viewBox="0 0 112.196 112.196">
    <circle cx="56.098" cy="56.098" r="56.098" fill="#4d76a1"/>
    <path d="M53.979 80.702h4.403s1.33-.146 2.009-.878c.625-.672.605-1.934.605-1.934s-.086-5.908 2.656-6.778c2.703-.857 6.174 5.71 9.853 8.235 2.782 1.911 4.896 1.492 4.896 1.492l9.837-.137s5.146-.317 2.706-4.363c-.2-.331-1.421-2.993-7.314-8.463-6.168-5.725-5.342-4.799 2.088-14.702 4.525-6.031 6.334-9.713 5.769-11.29-.539-1.502-3.867-1.105-3.867-1.105l-11.076.069s-.821-.112-1.43.252c-.595.357-.978 1.189-.978 1.189s-1.753 4.667-4.091 8.636c-4.932 8.375-6.904 8.817-7.71 8.297-1.875-1.212-1.407-4.869-1.407-7.467 0-8.116 1.231-11.5-2.397-12.376-1.204-.291-2.09-.483-5.169-.514-3.952-.041-7.297.012-9.191.94-1.26.617-2.232 1.992-1.64 2.071.732.098 2.39.447 3.269 1.644 1.135 1.544 1.095 5.012 1.095 5.012s.652 9.554-1.523 10.741c-1.493.814-3.541-.848-7.938-8.446-2.253-3.892-3.954-8.194-3.954-8.194s-.328-.804-.913-1.234c-.71-.521-1.702-.687-1.702-.687l-10.525.069s-1.58.044-2.16.731c-.516.611-.041 1.875-.041 1.875s8.24 19.278 17.57 28.993c8.555 8.907 18.27 8.322 18.27 8.322z" fill-rule="evenodd" clip-rule="evenodd" fill="#fff"/>
  </symbol>
  <symbol id="sprite-youtube" viewBox="0 0 461.001 461.001">
    <path d="M365.257 67.393H95.744C42.866 67.393 0 110.259 0 163.137v134.728c0 52.878 42.866 95.744 95.744 95.744h269.513c52.878 0 95.744-42.866 95.744-95.744V163.137c0-52.878-42.866-95.744-95.744-95.744zm-64.751 169.663l-126.06 60.123c-3.359 1.602-7.239-.847-7.239-4.568V168.607c0-3.774 3.982-6.22 7.348-4.514l126.06 63.881c3.748 1.899 3.683 7.274-.109 9.082z" fill="#f61c0d"/>
  </symbol>
</svg>
